<?xml version="1.0" encoding="UTF-8"?>
<svg xmlns="http://www.w3.org/2000/svg" viewBox="0 0 1280 720" font-family="sans-serif">
  <!-- Background -->
  <rect width="1280" height="720" fill="#f8f9fa" rx="8"/>

  <!-- Title -->
  <text x="640" y="38" text-anchor="middle" font-size="22" font-weight="bold" fill="#1a1a2e">愛媛県へようこそ！ - システム構成図</text>
  <text x="640" y="58" text-anchor="middle" font-size="12" fill="#666">画面切り替え型 2D プラットフォーマーゲーム</text>

  <!-- Development Environment Box -->
  <rect x="30" y="80" width="590" height="295" fill="#e8f4fd" stroke="#2196F3" stroke-width="2" rx="8"/>
  <text x="325" y="103" text-anchor="middle" font-size="14" font-weight="bold" fill="#1565C0">開発環境</text>

  <!-- Docker Container (Dev) -->
  <rect x="50" y="115" width="550" height="245" fill="#fff" stroke="#0288D1" stroke-width="1.5" rx="6" stroke-dasharray="6,3"/>
  <text x="65" y="137" font-size="11" font-weight="bold" fill="#0288D1">🐳 Docker (node:24-alpine)</text>

  <!-- Vite -->
  <rect x="70" y="150" width="165" height="50" fill="#646CFF" rx="6"/>
  <text x="152" y="173" text-anchor="middle" font-size="12" font-weight="bold" fill="#fff">Vite 6</text>
  <text x="152" y="190" text-anchor="middle" font-size="10" fill="#ddd">Dev Server + HMR</text>

  <!-- TypeScript -->
  <rect x="250" y="150" width="165" height="50" fill="#3178C6" rx="6"/>
  <text x="332" y="173" text-anchor="middle" font-size="12" font-weight="bold" fill="#fff">TypeScript 5.6</text>
  <text x="332" y="190" text-anchor="middle" font-size="10" fill="#ddd">型安全</text>

  <!-- ESLint -->
  <rect x="430" y="150" width="155" height="50" fill="#4B32C3" rx="6"/>
  <text x="507" y="173" text-anchor="middle" font-size="12" font-weight="bold" fill="#fff">ESLint 9</text>
  <text x="507" y="190" text-anchor="middle" font-size="10" fill="#ddd">コード品質</text>

  <!-- Port -->
  <rect x="70" y="215" width="165" height="42" fill="#FF9800" rx="6"/>
  <text x="152" y="237" text-anchor="middle" font-size="12" font-weight="bold" fill="#fff">localhost:5173</text>
  <text x="152" y="251" text-anchor="middle" font-size="10" fill="#fff">開発アクセス</text>

  <!-- Source files -->
  <rect x="250" y="215" width="335" height="80" fill="#f5f5f5" stroke="#ccc" stroke-width="1" rx="4"/>
  <text x="265" y="235" font-size="11" font-weight="bold" fill="#333">📁 src/</text>
  <text x="265" y="253" font-size="10" fill="#555">├── main.tsx, Home.tsx, Play.tsx, Game.tsx</text>
  <text x="265" y="269" font-size="10" fill="#555">├── stages/ (ステージデータ)</text>
  <text x="265" y="285" font-size="10" fill="#555">└── drips/, geysers/ (エフェクト)</text>

  <!-- Public assets -->
  <rect x="70" y="310" width="515" height="38" fill="#f5f5f5" stroke="#ccc" stroke-width="1" rx="4"/>
  <text x="85" y="334" font-size="10" fill="#555">📁 public/ (背景画像, スプライト, ステージ素材 … 全8ステージ分)</text>

  <!-- Production Environment Box -->
  <rect x="650" y="80" width="600" height="295" fill="#fff3e0" stroke="#FF9800" stroke-width="2" rx="8"/>
  <text x="950" y="103" text-anchor="middle" font-size="14" font-weight="bold" fill="#E65100">本番環境</text>

  <!-- Local Build Step -->
  <rect x="670" y="115" width="560" height="65" fill="#fff" stroke="#795548" stroke-width="1.5" rx="6"/>
  <text x="685" y="137" font-size="11" font-weight="bold" fill="#795548">💻 ローカルビルド</text>
  <rect x="690" y="148" width="520" height="25" fill="#78909C" rx="4"/>
  <text x="950" y="165" text-anchor="middle" font-size="11" font-weight="bold" fill="#fff">npm run build → dist/ 生成</text>

  <!-- Arrow from build to upload -->
  <path d="M950 180 L950 200" stroke="#666" stroke-width="2" marker-end="url(#arrowhead)"/>
  <text x="970" y="195" font-size="9" fill="#666">アップロード</text>

  <!-- AWS Amplify -->
  <rect x="670" y="205" width="560" height="155" fill="#fff" stroke="#FF9900" stroke-width="2" rx="6"/>
  <text x="685" y="227" font-size="11" font-weight="bold" fill="#FF9900">☁️ AWS Amplify Hosting</text>

  <!-- Amplify Features -->
  <rect x="690" y="238" width="520" height="40" fill="#FF9900" rx="6"/>
  <text x="950" y="256" text-anchor="middle" font-size="12" font-weight="bold" fill="#fff">AWS Amplify</text>
  <text x="950" y="271" text-anchor="middle" font-size="10" fill="#fff">静的ホスティング (dist/ デプロイ)</text>

  <!-- CDN -->
  <rect x="690" y="288" width="250" height="32" fill="#232F3E" rx="4"/>
  <text x="815" y="309" text-anchor="middle" font-size="10" font-weight="bold" fill="#fff">CloudFront CDN</text>

  <!-- HTTPS -->
  <rect x="960" y="288" width="250" height="32" fill="#232F3E" rx="4"/>
  <text x="1085" y="309" text-anchor="middle" font-size="10" font-weight="bold" fill="#fff">HTTPS 自動設定</text>

  <!-- URL -->
  <rect x="690" y="330" width="520" height="25" fill="#f5f5f5" stroke="#ccc" stroke-width="1" rx="4"/>
  <text x="950" y="347" text-anchor="middle" font-size="10" fill="#555">🌐 https://staging.d14grxvlzuzzw6.amplifyapp.com/</text>

  <!-- Frontend Stack Box -->
  <rect x="30" y="395" width="1220" height="115" fill="#e8f5e9" stroke="#4CAF50" stroke-width="2" rx="8"/>
  <text x="640" y="418" text-anchor="middle" font-size="14" font-weight="bold" fill="#2E7D32">フロントエンド技術スタック</text>

  <!-- React -->
  <rect x="55" y="432" width="200" height="62" fill="#61DAFB" rx="6"/>
  <text x="155" y="458" text-anchor="middle" font-size="13" font-weight="bold" fill="#1a1a2e">React 19</text>
  <text x="155" y="476" text-anchor="middle" font-size="10" fill="#333">UI フレームワーク + React DOM</text>

  <!-- Pixi.js -->
  <rect x="275" y="432" width="200" height="62" fill="#E91E63" rx="6"/>
  <text x="375" y="458" text-anchor="middle" font-size="13" font-weight="bold" fill="#fff">Pixi.js 8</text>
  <text x="375" y="476" text-anchor="middle" font-size="10" fill="#fce4ec">2D WebGL 描画 + @pixi/react</text>

  <!-- React Router -->
  <rect x="495" y="432" width="200" height="62" fill="#CA4245" rx="6"/>
  <text x="595" y="458" text-anchor="middle" font-size="13" font-weight="bold" fill="#fff">react-router-dom</text>
  <text x="595" y="476" text-anchor="middle" font-size="10" fill="#fce4ec">v7.1.1 ルーティング</text>

  <!-- Game Logic -->
  <rect x="715" y="432" width="520" height="62" fill="#7C4DFF" rx="6"/>
  <text x="975" y="453" text-anchor="middle" font-size="13" font-weight="bold" fill="#fff">ゲームロジック</text>
  <text x="975" y="471" text-anchor="middle" font-size="10" fill="#ede7f6">← → 移動 / Space ジャンプ / 画面端で切り替え</text>
  <text x="975" y="487" text-anchor="middle" font-size="10" fill="#ede7f6">全8ステージ（4〜6画面構成）/ 難易度 ★1〜★5</text>

  <!-- Stage Info Box -->
  <rect x="30" y="530" width="1220" height="120" fill="#fce4ec" stroke="#E91E63" stroke-width="2" rx="8"/>
  <text x="640" y="553" text-anchor="middle" font-size="14" font-weight="bold" fill="#880E4F">ステージ構成（全8ステージ / 愛媛県テーマ）</text>

  <!-- Stage boxes (均等配置: 幅140, 間隔10, 8枠 = 140*8+10*7 = 1190, 開始x=75) -->
  <rect x="45" y="565" width="140" height="72" fill="#fff" stroke="#E91E63" stroke-width="1" rx="4"/>
  <text x="115" y="585" text-anchor="middle" font-size="10" font-weight="bold" fill="#333">1. 四国中央・新居浜</text>
  <text x="115" y="602" text-anchor="middle" font-size="9" fill="#555">4画面</text>
  <text x="115" y="618" text-anchor="middle" font-size="10" fill="#E91E63">★☆☆☆☆</text>

  <rect x="195" y="565" width="140" height="72" fill="#fff" stroke="#E91E63" stroke-width="1" rx="4"/>
  <text x="265" y="585" text-anchor="middle" font-size="10" font-weight="bold" fill="#333">2. 今治・西条</text>
  <text x="265" y="602" text-anchor="middle" font-size="9" fill="#555">4画面</text>
  <text x="265" y="618" text-anchor="middle" font-size="10" fill="#E91E63">★★☆☆☆</text>

  <rect x="345" y="565" width="140" height="72" fill="#fff" stroke="#E91E63" stroke-width="1" rx="4"/>
  <text x="415" y="585" text-anchor="middle" font-size="10" font-weight="bold" fill="#333">3. お祭り</text>
  <text x="415" y="602" text-anchor="middle" font-size="9" fill="#555">5画面</text>
  <text x="415" y="618" text-anchor="middle" font-size="10" fill="#E91E63">★★☆☆☆</text>

  <rect x="495" y="565" width="140" height="72" fill="#fff" stroke="#E91E63" stroke-width="1" rx="4"/>
  <text x="565" y="585" text-anchor="middle" font-size="10" font-weight="bold" fill="#333">4. その他中予</text>
  <text x="565" y="602" text-anchor="middle" font-size="9" fill="#555">5画面</text>
  <text x="565" y="618" text-anchor="middle" font-size="10" fill="#E91E63">★★★☆☆</text>

  <rect x="645" y="565" width="140" height="72" fill="#fff" stroke="#E91E63" stroke-width="1" rx="4"/>
  <text x="715" y="585" text-anchor="middle" font-size="10" font-weight="bold" fill="#333">5. その他南予</text>
  <text x="715" y="602" text-anchor="middle" font-size="9" fill="#555">5画面</text>
  <text x="715" y="618" text-anchor="middle" font-size="10" fill="#E91E63">★★★★☆</text>

  <rect x="795" y="565" width="140" height="72" fill="#fff" stroke="#E91E63" stroke-width="1" rx="4"/>
  <text x="865" y="585" text-anchor="middle" font-size="10" font-weight="bold" fill="#333">6. 宇和島・愛南</text>
  <text x="865" y="602" text-anchor="middle" font-size="9" fill="#555">5画面</text>
  <text x="865" y="618" text-anchor="middle" font-size="10" fill="#E91E63">★★★★☆</text>

  <rect x="945" y="565" width="140" height="72" fill="#fff" stroke="#E91E63" stroke-width="1" rx="4"/>
  <text x="1015" y="585" text-anchor="middle" font-size="10" font-weight="bold" fill="#333">7. 道後温泉</text>
  <text x="1015" y="602" text-anchor="middle" font-size="9" fill="#555">6画面</text>
  <text x="1015" y="618" text-anchor="middle" font-size="10" fill="#E91E63">★★★★★</text>

  <rect x="1095" y="565" width="140" height="72" fill="#fff" stroke="#E91E63" stroke-width="1" rx="4"/>
  <text x="1165" y="585" text-anchor="middle" font-size="10" font-weight="bold" fill="#333">8. 松山城</text>
  <text x="1165" y="602" text-anchor="middle" font-size="9" fill="#555">6画面</text>
  <text x="1165" y="618" text-anchor="middle" font-size="10" fill="#E91E63">★★★★★</text>

  <!-- Docker Config Note -->
  <rect x="30" y="665" width="600" height="40" fill="#e3f2fd" stroke="#90CAF9" stroke-width="1" rx="4"/>
  <text x="45" y="685" font-size="10" fill="#1565C0">📄 Docker構成: Dockerfile.dev (開発) / docker-compose.yml (開発オーケストレーション)</text>
  <text x="45" y="699" font-size="10" fill="#1565C0">📄 設定: vite.config.ts / tsconfig.json / eslint.config.js / .dockerignore</text>

  <!-- Kiro Note -->
  <rect x="650" y="665" width="600" height="40" fill="#f3e5f5" stroke="#CE93D8" stroke-width="1" rx="4"/>
  <text x="665" y="685" font-size="10" fill="#6A1B9A">🤖 このプロジェクトは Kiro (AI コーディングアシスタント) との対話により設計・実装されました。</text>
  <text x="665" y="699" font-size="10" fill="#6A1B9A">プロジェクト構成、ライブラリ選定、ゲームロジックのすべてが AI との協業で生成されています。</text>

  <!-- Arrow marker -->
  <defs>
    <marker id="arrowhead" markerWidth="10" markerHeight="7" refX="10" refY="3.5" orient="auto">
      <polygon points="0 0, 10 3.5, 0 7" fill="#666"/>
    </marker>
  </defs>
</svg>
